<?xml version="1.0" ?><svg viewBox="0 0 40 40" xmlns="http://www.w3.org/2000/svg"><defs><style>.cls-1{fill:#c15ce3;}.cls-2{fill:#1a1a1a;}.cls-3{fill:#333;}.cls-4{fill:#4d4d4d;}.cls-5{fill:#666;}.cls-6{fill:#fff;}</style></defs><g id="OneNote"><path class="cls-1" d="M14.18,7.77H32.83A1.14,1.14,0,0,1,34,8.91h0V31.07a1.16,1.16,0,0,1-1.16,1.16H14.18A1.16,1.16,0,0,1,13,31.07V8.92a1.15,1.15,0,0,1,1.16-1.15Z" id="Path-68"/><path class="cls-2" d="M34,8.92a1.11,1.11,0,0,0-.34-.81,1.15,1.15,0,0,0-.82-.34H14.18a1.15,1.15,0,0,0-.82.34,1.11,1.11,0,0,0-.34.81V31.07a1.16,1.16,0,0,0,1.16,1.16h13.7V13.88H34Z" id="Path-69"/><path class="cls-3" d="M27.88,26.12H34v5a1.14,1.14,0,0,1-1.15,1.15h-5Z" id="Path-70"/><path class="cls-4" d="M27.88,20H34v6.12H27.88Z" id="Rectangle-15"/><path class="cls-5" d="M27.88,13.88H34V20H27.88Z" id="Rectangle-16"/><path d="M7.19,13H18.84A1.16,1.16,0,0,1,20,14.17V25.82A1.17,1.17,0,0,1,18.84,27H7.19A1.17,1.17,0,0,1,6,25.85V14.17A1.18,1.18,0,0,1,7.16,13Z" data-name="Back Plate-4" id="Back_Plate-4"/><path class="cls-6" d="M9.55,15.64h1.84l3.18,5.87c.17.24.29.45.38.6A8.86,8.86,0,0,1,14.89,21V15.64h1.59v8.71H14.76l-3.32-5.81a3.51,3.51,0,0,1-.33-.6,10.61,10.61,0,0,1,0,1.26v5.11H9.55Z" id="Path-88"/></g></svg>